{
	"asset":{
		"generator":"Khronos glTF Blender I/O v4.3.47",
		"version":"2.0"
	},
	"scene":0,
	"scenes":[
		{
			"name":"Scene",
			"nodes":[
				0
			]
		}
	],
	"nodes":[
		{
			"mesh":0,
			"name":"Assembly 1 (1)",
			"rotation":[
				0.7071068286895752,
				0,
				0,
				0.7071068286895752
			],
			"scale":[
				13.078927040100098,
				13.078927040100098,
				13.078927040100098
			],
			"translation":[
				7.114346504211426,
				-0.9004089832305908,
				-6.442926406860352
			]
		}
	],
	"materials":[
		{
			"doubleSided":true,
			"name":"\u6750\u8d28",
			"pbrMetallicRoughness":{
				"baseColorFactor":[
					0.4376985430717468,
					0.5165153741836548,
					0.8000626564025879,
					1
				],
				"metallicFactor":0,
				"roughnessFactor":0.5
			}
		}
	],
	"meshes":[
		{
			"name":"Assembly 1 (1)",
			"primitives":[
				{
					"attributes":{
						"POSITION":0,
						"NORMAL":1
					},
					"indices":2,
					"material":0
				}
			]
		}
	],
	"accessors":[
		{
			"bufferView":0,
			"componentType":5126,
			"count":14092040,
			"max":[
				-0.3068073093891144,
				0.7188850045204163,
				-0.0699702650308609
			],
			"min":[
				-0.771771252155304,
				-0.00015383140998892486,
				-0.7870014309883118
			],
			"type":"VEC3"
		},
		{
			"bufferView":1,
			"componentType":5126,
			"count":14092040,
			"type":"VEC3"
		},
		{
			"bufferView":2,
			"componentType":5125,
			"count":15344736,
			"type":"SCALAR"
		}
	],
	"bufferViews":[
		{
			"buffer":0,
			"byteLength":169104480,
			"byteOffset":0,
			"target":34962
		},
		{
			"buffer":0,
			"byteLength":169104480,
			"byteOffset":169104480,
			"target":34962
		},
		{
			"buffer":0,
			"byteLength":61378944,
			"byteOffset":338208960,
			"target":34963
		}
	],
	"buffers":[
		{
			"byteLength":399587904,
			"uri":"robot4.bin"
		}
	]
}
